<?xml version="1.0" encoding="UTF-8" standalone="no"?>
<!-- Created with Inkscape (http://www.inkscape.org/) -->

<svg
   xmlns:dc="http://purl.org/dc/elements/1.1/"
   xmlns:cc="http://creativecommons.org/ns#"
   xmlns:rdf="http://www.w3.org/1999/02/22-rdf-syntax-ns#"
   xmlns:svg="http://www.w3.org/2000/svg"
   xmlns="http://www.w3.org/2000/svg"
   xmlns:sodipodi="http://sodipodi.sourceforge.net/DTD/sodipodi-0.dtd"
   xmlns:inkscape="http://www.inkscape.org/namespaces/inkscape"
   width="400.70078"
   height="400.51968"
   viewBox="0 0 106.01874 105.97084"
   version="1.1"
   id="svg8"
   inkscape:version="0.92.2 (5c3e80d, 2017-08-06)"
   sodipodi:docname="logo.svg">
  <defs
     id="defs2" />
  <sodipodi:namedview
     id="base"
     pagecolor="#ffffff"
     bordercolor="#666666"
     borderopacity="1.0"
     inkscape:pageopacity="0.0"
     inkscape:pageshadow="2"
     inkscape:zoom="1"
     inkscape:cx="54.785925"
     inkscape:cy="269.83891"
     inkscape:document-units="mm"
     inkscape:current-layer="layer1"
     showgrid="false"
     showguides="true"
     inkscape:guide-bbox="true"
     inkscape:window-width="1920"
     inkscape:window-height="1048"
     inkscape:window-x="0"
     inkscape:window-y="0"
     inkscape:window-maximized="1"
     units="px" />
  <metadata
     id="metadata5">
    <rdf:RDF>
      <cc:Work
         rdf:about="">
        <dc:format>image/svg+xml</dc:format>
        <dc:type
           rdf:resource="http://purl.org/dc/dcmitype/StillImage" />
        <dc:title></dc:title>
      </cc:Work>
    </rdf:RDF>
  </metadata>
  <g
     inkscape:label="Layer 1"
     inkscape:groupmode="layer"
     id="layer1"
     transform="translate(0,-191.02915)">
    <g
       id="g1176"
       transform="matrix(3.0045288,0,0,3.0045288,-281.82034,-185.65273)">
      <circle
         transform="scale(-1,1)"
         r="14.882812"
         cy="141.74631"
         cx="-111.40847"
         id="path854"
         style="opacity:1;fill:none;fill-opacity:1;stroke:#0066ff;stroke-width:0.50199997;stroke-linejoin:round;stroke-miterlimit:4;stroke-dasharray:none;stroke-dashoffset:0;stroke-opacity:1;paint-order:normal" />
      <circle
         transform="scale(-1,1)"
         r="8.3012991"
         cy="141.74631"
         cx="-111.48479"
         id="path854-6"
         style="opacity:1;fill:#0066ff;fill-opacity:1;stroke:none;stroke-width:0.05689332;stroke-linejoin:round;stroke-miterlimit:4;stroke-dasharray:none;stroke-dashoffset:0;stroke-opacity:1;paint-order:normal" />
      <circle
         transform="scale(-1,1)"
         r="2.6218216"
         cy="154.008"
         cx="-119.01688"
         id="path854-6-7"
         style="opacity:1;fill:#0066ff;fill-opacity:1;stroke:none;stroke-width:0.01796877;stroke-linejoin:round;stroke-miterlimit:4;stroke-dasharray:none;stroke-dashoffset:0;stroke-opacity:1;paint-order:normal" />
      <path
         inkscape:connector-curvature="0"
         id="path918-6-1-0"
         d="m 106.71803,140.24013 c -0.21177,0.11418 -0.41813,0.32408 -0.38795,0.40641 0,0 -0.0977,0.0668 -0.12725,0.1125 -0.0491,0.0751 -0.0554,0.24337 -0.0554,0.24337 0,0 -0.34002,0.44347 -0.41916,0.70524 -0.11794,0.39009 0.16887,1.95151 0.56551,2.86614 0.44187,1.0189 0.75982,2.11517 1.90163,2.70821 0.44006,0.22855 1.05417,0.16073 1.44863,-0.29222 0.55076,-0.63244 0.38904,-1.34749 0.46223,-2.02547 0.60663,0.22964 1.69473,-0.0997 1.78146,-1.47924 l 0.44532,-0.26958 0.45612,-0.25087 c 1.23805,0.61465 2.06735,-0.16299 2.17178,-0.80316 0.62375,0.2756 1.16214,0.77318 1.98522,0.61243 0.58951,-0.11513 0.95529,-0.61308 0.97739,-1.10844 0.0573,-1.28536 -0.7331,-2.10885 -1.39457,-3.00097 -0.59376,-0.80081 -1.80258,-1.82991 -2.19939,-1.92281 -0.26626,-0.0624 -0.82033,0.0104 -0.82033,0.0104 0,0 -0.14885,-0.0786 -0.23847,-0.0737 -0.0542,0.003 -0.16105,0.054 -0.16105,0.054 -0.075,-0.0897 -0.55602,0.0722 -0.71307,0.2724 -0.0536,0.0682 -0.0323,0.25811 -0.0323,0.25811 -0.52884,0.28409 -0.86389,0.64876 -0.79176,1.29597 0.0248,0.22213 -0.14187,0.43343 -0.40367,0.55858 l -0.9123,0.50166 -0.8906,0.53925 c -0.23928,0.16413 -0.50561,0.20277 -0.68557,0.0703 -0.52443,-0.38608 -1.00777,-0.27822 -1.51823,0.0377 0,0 -0.15386,-0.1133 -0.23969,-0.10106 -0.063,0.009 -0.13399,0.0367 -0.20451,0.0749 z"
         style="fill:#ffffff;stroke:none;stroke-width:0.04337103px;stroke-linecap:butt;stroke-linejoin:miter;stroke-opacity:1" />
      <circle
         transform="scale(-1,1)"
         r="0.70359248"
         cy="143.87241"
         cx="-110.69505"
         id="path854-6-7-3"
         style="opacity:1;fill:#0066ff;fill-opacity:1;stroke:none;stroke-width:0.0048221;stroke-linejoin:round;stroke-miterlimit:4;stroke-dasharray:none;stroke-dashoffset:0;stroke-opacity:1;paint-order:normal" />
      <circle
         transform="scale(-1,1)"
         r="0.70359248"
         cy="142.02031"
         cx="-113.73775"
         id="path854-6-7-3-6"
         style="opacity:1;fill:#0066ff;fill-opacity:1;stroke:none;stroke-width:0.0048221;stroke-linejoin:round;stroke-miterlimit:4;stroke-dasharray:none;stroke-dashoffset:0;stroke-opacity:1;paint-order:normal" />
      <path
         sodipodi:nodetypes="sssssssssssss"
         inkscape:connector-curvature="0"
         id="path1060-6"
         d="m 107.29226,141.74628 c -0.0802,0.29913 0.54375,0.5052 0.46452,0.80457 -0.0835,0.31567 -0.76179,0.17935 -0.84535,0.49499 -0.0703,0.26545 0.14665,0.64233 0.41189,0.71341 0.3154,0.0845 0.53294,-0.57431 0.84835,-0.48979 0.29746,0.0797 0.16446,0.72038 0.46193,0.80009 0.26519,0.0711 0.64224,-0.14662 0.71329,-0.41182 0.0802,-0.29913 -0.54374,-0.5052 -0.46452,-0.80457 0.0836,-0.31567 0.76179,-0.17934 0.84535,-0.49499 0.0703,-0.26541 -0.14663,-0.64224 -0.41182,-0.7133 -0.3154,-0.0845 -0.53294,0.57431 -0.84835,0.4898 -0.2975,-0.0797 -0.16449,-0.72049 -0.462,-0.80021 -0.26518,-0.0711 -0.64223,0.14663 -0.71329,0.41182 z"
         style="fill:#0066ff;fill-opacity:1;stroke:#0066ff;stroke-width:0.06296912px;stroke-linecap:butt;stroke-linejoin:miter;stroke-opacity:1" />
      <circle
         transform="matrix(-0.8660254,0.5,0.5,0.8660254,0,0)"
         r="0.70359248"
         cy="176.75626"
         cx="-29.232061"
         id="path854-6-7-3-6-2-7"
         style="opacity:1;fill:#0066ff;fill-opacity:1;stroke:none;stroke-width:0.0048221;stroke-linejoin:round;stroke-miterlimit:4;stroke-dasharray:none;stroke-dashoffset:0;stroke-opacity:1;paint-order:normal" />
      <circle
         transform="matrix(-0.8660254,0.5,0.5,0.8660254,0,0)"
         r="0.70359248"
         cy="178.7171"
         cx="-29.232061"
         id="path854-6-7-3-6-2-6-9"
         style="opacity:1;fill:#0066ff;fill-opacity:1;stroke:none;stroke-width:0.0048221;stroke-linejoin:round;stroke-miterlimit:4;stroke-dasharray:none;stroke-dashoffset:0;stroke-opacity:1;paint-order:normal" />
      <circle
         transform="matrix(-0.8660254,0.5,0.5,0.8660254,0,0)"
         r="0.70359248"
         cy="177.73248"
         cx="-30.340208"
         id="path854-6-7-3-6-2-1-2"
         style="opacity:1;fill:#0066ff;fill-opacity:1;stroke:none;stroke-width:0.0048221;stroke-linejoin:round;stroke-miterlimit:4;stroke-dasharray:none;stroke-dashoffset:0;stroke-opacity:1;paint-order:normal" />
      <circle
         transform="matrix(-0.8660254,0.5,0.5,0.8660254,0,0)"
         r="0.70359248"
         cy="177.73248"
         cx="-28.124388"
         id="path854-6-7-3-6-2-8-0"
         style="opacity:1;fill:#0066ff;fill-opacity:1;stroke:none;stroke-width:0.0048221;stroke-linejoin:round;stroke-miterlimit:4;stroke-dasharray:none;stroke-dashoffset:0;stroke-opacity:1;paint-order:normal" />
      <text
         id="text1161"
         y="160.14464"
         x="102.14758"
         style="font-style:normal;font-weight:normal;font-size:4.23333311px;line-height:1.25;font-family:sans-serif;letter-spacing:0px;word-spacing:0px;fill:#0037ff;fill-opacity:1;stroke:none;stroke-width:0.26458332"
         xml:space="preserve"><tspan
           style="font-style:normal;font-variant:normal;font-weight:normal;font-stretch:normal;font-family:FreeMono;-inkscape-font-specification:FreeMono;fill:#0037ff;fill-opacity:1;stroke-width:0.26458332"
           y="160.14464"
           x="102.14758"
           id="tspan1159"
           sodipodi:role="line">HYDROGEN</tspan></text>
    </g>
  </g>
</svg>
